<svg width="16" height="12" viewBox="0 0 16 12" fill="none" xmlns="http://www.w3.org/2000/svg">
<g clip-path="url(#clip0_2_482)">
<path d="M15.349 1.425C14.9303 2.0375 14.424 2.55938 13.8303 2.99063C13.8365 3.07813 13.8397 3.20938 13.8397 3.38438C13.8397 4.19688 13.7209 5.00781 13.4834 5.81719C13.2459 6.62656 12.885 7.40313 12.4006 8.14688C11.9162 8.89062 11.3397 9.54844 10.6709 10.1203C10.0022 10.6922 9.19591 11.1484 8.25216 11.4891C7.30841 11.8297 6.29904 12 5.22404 12C3.53029 12 1.98029 11.5469 0.574036 10.6406C0.792786 10.6656 1.03654 10.6781 1.30529 10.6781C2.71154 10.6781 3.96466 10.2469 5.06466 9.38438C4.40841 9.37188 3.82091 9.17031 3.30216 8.77969C2.78341 8.38906 2.42716 7.89063 2.23341 7.28438C2.43966 7.31563 2.63029 7.33125 2.80529 7.33125C3.07404 7.33125 3.33966 7.29688 3.60216 7.22813C2.90216 7.08438 2.32247 6.73594 1.8631 6.18281C1.40372 5.62969 1.17404 4.9875 1.17404 4.25625V4.21875C1.59904 4.45625 2.05529 4.58438 2.54279 4.60313C2.13029 4.32812 1.80216 3.96875 1.55841 3.525C1.31466 3.08125 1.19279 2.6 1.19279 2.08125C1.19279 1.53125 1.33029 1.02188 1.60529 0.553125C2.36154 1.48438 3.28185 2.22969 4.36622 2.78906C5.4506 3.34844 6.61154 3.65938 7.84904 3.72188C7.79904 3.48438 7.77404 3.25313 7.77404 3.02813C7.77404 2.19062 8.06935 1.47656 8.65997 0.885938C9.2506 0.295313 9.96466 0 10.8022 0C11.6772 0 12.4147 0.31875 13.0147 0.95625C13.6959 0.825 14.3365 0.58125 14.9365 0.225C14.7053 0.94375 14.2615 1.5 13.6053 1.89375C14.1865 1.83125 14.7678 1.675 15.349 1.425Z" fill="white"/>
</g>
<defs>
<clipPath id="clip0_2_482">
<rect width="15" height="12" fill="white" transform="translate(0.461548)"/>
</clipPath>
</defs>
</svg>
