<svg width="13" height="12" viewBox="0 0 13 12" fill="none" xmlns="http://www.w3.org/2000/svg">
<g clip-path="url(#clip0_2_486)">
<path d="M3.24612 3.96601V11.8729H0.613144V3.96601H3.24612ZM3.41368 1.52452C3.41899 1.91282 3.28469 2.23728 3.01075 2.49792C2.73681 2.75856 2.37644 2.88888 1.92963 2.88888H1.91368C1.47751 2.88888 1.12644 2.75856 0.860484 2.49792C0.594527 2.23728 0.461548 1.91282 0.461548 1.52452C0.461548 1.1309 0.598516 0.805103 0.872452 0.547124C1.14639 0.289146 1.5041 0.160156 1.94559 0.160156C2.38708 0.160156 2.7408 0.289146 3.00676 0.547124C3.27272 0.805103 3.40836 1.1309 3.41368 1.52452ZM12.7169 7.34101V11.8729H10.0919V7.6442C10.0919 7.08569 9.98416 6.64819 9.76873 6.3317C9.5533 6.01521 9.21687 5.85696 8.75942 5.85696C8.42431 5.85696 8.14373 5.94872 7.91767 6.13223C7.6916 6.31574 7.52272 6.54313 7.41102 6.81441C7.35251 6.97399 7.32325 7.18941 7.32325 7.46069V11.8729H4.69825C4.70889 9.75058 4.71421 8.02984 4.71421 6.71069C4.71421 5.39154 4.71155 4.6043 4.70623 4.34899L4.69825 3.96601H7.32325V5.11494H7.30729C7.41368 4.94473 7.52272 4.79579 7.63442 4.66813C7.74612 4.54047 7.89639 4.40218 8.08522 4.25324C8.27405 4.1043 8.50543 3.98861 8.77937 3.90617C9.0533 3.82372 9.35783 3.7825 9.69293 3.7825C10.6025 3.7825 11.3339 4.08436 11.8871 4.68808C12.4403 5.2918 12.7169 6.17611 12.7169 7.34101Z" fill="white"/>
</g>
<defs>
<clipPath id="clip0_2_486">
<rect width="12.2553" height="12" fill="white" transform="translate(0.461548)"/>
</clipPath>
</defs>
</svg>
