<svg width="13" height="12" viewBox="0 0 13 12" fill="none" xmlns="http://www.w3.org/2000/svg">
<g clip-path="url(#clip0_2_480)">
<path d="M8.46155 6C8.46155 5.44792 8.26624 4.97656 7.87561 4.58594C7.48499 4.19531 7.01363 4 6.46155 4C5.90946 4 5.43811 4.19531 5.04749 4.58594C4.65686 4.97656 4.46155 5.44792 4.46155 6C4.46155 6.55208 4.65686 7.02344 5.04749 7.41406C5.43811 7.80469 5.90946 8 6.46155 8C7.01363 8 7.48499 7.80469 7.87561 7.41406C8.26624 7.02344 8.46155 6.55208 8.46155 6ZM9.53967 6C9.53967 6.85417 9.24019 7.58073 8.64124 8.17969C8.04228 8.77865 7.31571 9.07812 6.46155 9.07812C5.60738 9.07812 4.88082 8.77865 4.28186 8.17969C3.6829 7.58073 3.38342 6.85417 3.38342 6C3.38342 5.14583 3.6829 4.41927 4.28186 3.82031C4.88082 3.22135 5.60738 2.92188 6.46155 2.92188C7.31571 2.92188 8.04228 3.22135 8.64124 3.82031C9.24019 4.41927 9.53967 5.14583 9.53967 6ZM10.3834 2.79688C10.3834 2.99479 10.3131 3.16406 10.1725 3.30469C10.0319 3.44531 9.86259 3.51562 9.66467 3.51562C9.46676 3.51562 9.29749 3.44531 9.15686 3.30469C9.01624 3.16406 8.94592 2.99479 8.94592 2.79688C8.94592 2.59896 9.01624 2.42969 9.15686 2.28906C9.29749 2.14844 9.46676 2.07812 9.66467 2.07812C9.86259 2.07812 10.0319 2.14844 10.1725 2.28906C10.3131 2.42969 10.3834 2.59896 10.3834 2.79688ZM6.46155 1.07812C6.42509 1.07812 6.22587 1.07682 5.86389 1.07422C5.50191 1.07161 5.22717 1.07161 5.03967 1.07422C4.85217 1.07682 4.60087 1.08464 4.28577 1.09766C3.97066 1.11068 3.70243 1.13672 3.48108 1.17578C3.25972 1.21484 3.07353 1.26302 2.92249 1.32031C2.66207 1.42448 2.4329 1.57552 2.23499 1.77344C2.03707 1.97135 1.88603 2.20052 1.78186 2.46094C1.72457 2.61198 1.67639 2.79818 1.63733 3.01953C1.59827 3.24089 1.57222 3.50911 1.5592 3.82422C1.54618 4.13932 1.53837 4.39062 1.53577 4.57812C1.53316 4.76562 1.53316 5.04036 1.53577 5.40234C1.53837 5.76432 1.53967 5.96354 1.53967 6C1.53967 6.03646 1.53837 6.23568 1.53577 6.59766C1.53316 6.95964 1.53316 7.23438 1.53577 7.42188C1.53837 7.60938 1.54618 7.86068 1.5592 8.17578C1.57222 8.49089 1.59827 8.75911 1.63733 8.98047C1.67639 9.20182 1.72457 9.38802 1.78186 9.53906C1.88603 9.79948 2.03707 10.0286 2.23499 10.2266C2.4329 10.4245 2.66207 10.5755 2.92249 10.6797C3.07353 10.737 3.25972 10.7852 3.48108 10.8242C3.70243 10.8633 3.97066 10.8893 4.28577 10.9023C4.60087 10.9154 4.85217 10.9232 5.03967 10.9258C5.22717 10.9284 5.50191 10.9284 5.86389 10.9258C6.22587 10.9232 6.42509 10.9219 6.46155 10.9219C6.49801 10.9219 6.69723 10.9232 7.0592 10.9258C7.42118 10.9284 7.69592 10.9284 7.88342 10.9258C8.07092 10.9232 8.32223 10.9154 8.63733 10.9023C8.95243 10.8893 9.22066 10.8633 9.44202 10.8242C9.66337 10.7852 9.84957 10.737 10.0006 10.6797C10.261 10.5755 10.4902 10.4245 10.6881 10.2266C10.886 10.0286 11.0371 9.79948 11.1412 9.53906C11.1985 9.38802 11.2467 9.20182 11.2858 8.98047C11.3248 8.75911 11.3509 8.49089 11.3639 8.17578C11.3769 7.86068 11.3847 7.60938 11.3873 7.42188C11.3899 7.23438 11.3899 6.95964 11.3873 6.59766C11.3847 6.23568 11.3834 6.03646 11.3834 6C11.3834 5.96354 11.3847 5.76432 11.3873 5.40234C11.3899 5.04036 11.3899 4.76562 11.3873 4.57812C11.3847 4.39062 11.3769 4.13932 11.3639 3.82422C11.3509 3.50911 11.3248 3.24089 11.2858 3.01953C11.2467 2.79818 11.1985 2.61198 11.1412 2.46094C11.0371 2.20052 10.886 1.97135 10.6881 1.77344C10.4902 1.57552 10.261 1.42448 10.0006 1.32031C9.84957 1.26302 9.66337 1.21484 9.44202 1.17578C9.22066 1.13672 8.95243 1.11068 8.63733 1.09766C8.32223 1.08464 8.07092 1.07682 7.88342 1.07422C7.69592 1.07161 7.42118 1.07161 7.0592 1.07422C6.69723 1.07682 6.49801 1.07812 6.46155 1.07812ZM12.4615 6C12.4615 7.19271 12.4485 8.01823 12.4225 8.47656C12.3704 9.5599 12.0475 10.3984 11.4537 10.9922C10.86 11.5859 10.0214 11.9089 8.93811 11.9609C8.47978 11.987 7.65426 12 6.46155 12C5.26884 12 4.44332 11.987 3.98499 11.9609C2.90165 11.9089 2.06311 11.5859 1.46936 10.9922C0.87561 10.3984 0.552694 9.5599 0.50061 8.47656C0.474569 8.01823 0.461548 7.19271 0.461548 6C0.461548 4.80729 0.474569 3.98177 0.50061 3.52344C0.552694 2.4401 0.87561 1.60156 1.46936 1.00781C2.06311 0.414062 2.90165 0.0911458 3.98499 0.0390625C4.44332 0.0130208 5.26884 0 6.46155 0C7.65426 0 8.47978 0.0130208 8.93811 0.0390625C10.0214 0.0911458 10.86 0.414062 11.4537 1.00781C12.0475 1.60156 12.3704 2.4401 12.4225 3.52344C12.4485 3.98177 12.4615 4.80729 12.4615 6Z" fill="white"/>
</g>
<defs>
<clipPath id="clip0_2_480">
<rect width="12" height="12" fill="white" transform="translate(0.461548)"/>
</clipPath>
</defs>
</svg>
